<svg xmlns="http://www.w3.org/2000/svg" version="1.1" viewBox="0 0 734.5 582">
    <defs>
        <style>
            .cls-1 {
            fill: none;
            stroke: #000000;
            stroke-miterlimit: 10;
            stroke-width: 15px;
            }
            .napis{
            fill: #000000;
            }
        </style>
    </defs>
    <g>
        <g id="Warstwa_2">
            <g>
                <path class="cls-1" d="M393.15,375.5c16.44-7.8,33.09-16.44,49.86-26,10.32-5.88,20.31-11.9,30-18.04"/>
                <path class="cls-1" d="M564.58,263.19c19.3-16.8,36.74-33.71,52.43-50.26"/>
                <path class="cls-1" d="M87.01,197.14v-115.14s353.3-.34,530-.44"/>
                <path class="cls-1" d="M658.17,81.53c19.61,0,39.23-.02,58.84-.03-12.77,21.26-31.94,50.81-58.66,84.08"/>
                <path class="cls-1" d="M531.65,290.28c-4.78,3.71-9.66,7.4-14.64,11.07"/>
                <path class="cls-1" d="M87.01,233.68v214.82c45.75-1.14,124-7.22,215.65-37"/>
                <path class="cls-1" d="M658.11,51.5l.06,30.03.18,84.05.63,295.92h70.03V51.5h-70.9ZM51.01,233.78v227.72h601.25l-120.61-171.22-14.64-20.78v142h-242.5l-.5-38.49,126-140.51-192.5.49h-.5v178.51h-47v-178l-73,.18M87.01,197.14l375-1.14v34.5l-130,145h141v-44.04l.5-134.96h45.86l45.21,66.69,52.43,77.33V51.5H51.01v145.8"/>
                <polyline class="cls-1" points="87.01 197.14 51.01 197.3 5.01 198 5.01 234 51.01 233.78 87.01 233.68"/>
                <polyline class="cls-1" points="658.11 51.5 658.01 5 617.01 5 617.01 51.5"/>
                <polygon class="cls-1" points="659 471.07 652.26 461.5 658.98 461.5 659 471.07"/>
            </g>
            <g>
                <path class="napis" d="M111.59,542.88c.75,0,1.4.29,1.95.88l5.49,5.91c-3.46,4.14-7.71,7.33-12.75,9.58-5.04,2.25-11.06,3.37-18.06,3.37-6.22,0-11.83-1.06-16.85-3.19-5.02-2.13-9.29-5.09-12.83-8.9-3.54-3.81-6.27-8.35-8.17-13.62-1.91-5.27-2.86-11.07-2.86-17.39s1.01-12.13,3.04-17.43c2.03-5.29,4.88-9.84,8.56-13.65,3.68-3.81,8.09-6.77,13.22-8.87,5.13-2.11,10.79-3.16,16.97-3.16s11.56.99,16.26,2.96c4.7,1.97,8.78,4.6,12.24,7.88l-4.54,6.38c-.32.43-.69.8-1.12,1.11-.43.31-1.02.47-1.77.47-.79,0-1.68-.36-2.69-1.08-1-.72-2.28-1.52-3.84-2.4-1.56-.88-3.5-1.68-5.84-2.4-2.34-.72-5.26-1.08-8.76-1.08-4.05,0-7.77.7-11.15,2.11s-6.29,3.46-8.73,6.15c-2.44,2.69-4.34,5.97-5.69,9.84-1.36,3.86-2.04,8.26-2.04,13.18s.71,9.38,2.12,13.27c1.42,3.89,3.36,7.16,5.84,9.84,2.48,2.67,5.39,4.71,8.73,6.12,3.34,1.41,6.94,2.11,10.8,2.11,2.36,0,4.47-.13,6.34-.38,1.87-.25,3.59-.66,5.16-1.23s3.06-1.28,4.46-2.14c1.4-.86,2.78-1.91,4.16-3.16.79-.7,1.57-1.05,2.36-1.05Z"/>
                <path class="napis" d="M171.07,507.21c0,.9-.15,1.78-.44,2.64-.29.86-.72,1.58-1.27,2.17l-30.51,39.89h31.22v9.78h-45.91v-5.27c0-.59.14-1.29.41-2.11.27-.82.69-1.6,1.24-2.34l30.74-40.24h-30.63v-9.78h45.14v5.27Z"/>
                <path class="napis" d="M190.6,532.81c.16,3.4.69,6.34,1.59,8.81.9,2.48,2.11,4.54,3.63,6.18,1.51,1.64,3.32,2.86,5.43,3.66,2.1.8,4.46,1.2,7.05,1.2s4.62-.28,6.43-.85,3.38-1.19,4.72-1.87c1.34-.68,2.48-1.31,3.42-1.87s1.81-.85,2.6-.85c1.02,0,1.81.39,2.36,1.17l3.6,4.63c-2.2,2.58-4.83,4.59-7.88,6.03-3.05,1.45-6.23,2.44-9.53,2.99-.71.43-1.43.93-2.15,1.49-.73.56-1.37,1.19-1.92,1.87-.55.68-1,1.42-1.36,2.22-.35.8-.53,1.63-.53,2.49,0,1.29.42,2.31,1.27,3.07.85.76,2.02,1.14,3.51,1.14.83,0,1.49-.06,2.01-.18.51-.12.94-.23,1.3-.35.35-.12.65-.23.88-.35.24-.12.45-.18.65-.18.63,0,1.04.27,1.24.82l1.95,4.68c-1.26.9-2.82,1.62-4.69,2.17-1.87.55-3.87.82-5.99.82-3.7,0-6.56-.78-8.59-2.34-2.03-1.56-3.04-3.63-3.04-6.21,0-1.99.62-3.9,1.86-5.74s2.94-3.49,5.1-4.98c-3.97-.16-7.63-.98-10.98-2.46-3.34-1.48-6.25-3.57-8.7-6.27s-4.38-5.98-5.75-9.87c-1.38-3.88-2.07-8.33-2.07-13.32,0-4.14.66-8,1.98-11.6,1.32-3.59,3.21-6.71,5.66-9.37,2.46-2.66,5.45-4.75,8.97-6.3,3.52-1.54,7.5-2.31,11.95-2.31,3.7,0,7.12.6,10.27,1.79,3.15,1.19,5.86,2.94,8.14,5.24,2.28,2.31,4.06,5.12,5.34,8.47,1.28,3.34,1.92,7.14,1.92,11.39,0,1.95-.22,3.26-.65,3.92-.43.66-1.22,1-2.36,1h-38.65ZM220.88,525.08c0-2.11-.31-4.07-.91-5.89-.61-1.82-1.51-3.4-2.69-4.75-1.18-1.35-2.65-2.4-4.4-3.16-1.75-.76-3.77-1.14-6.05-1.14-4.6,0-8.22,1.31-10.86,3.93s-4.31,6.29-5.02,11.01h29.92Z"/>
                <path class="napis" d="M280,512.78c-.32.55-.67.94-1.06,1.17-.39.23-.89.35-1.48.35-.67,0-1.4-.21-2.18-.62s-1.71-.87-2.77-1.38-2.31-.97-3.75-1.38-3.12-.61-5.05-.61c-1.57,0-3,.18-4.28.55-1.28.37-2.36.9-3.25,1.58-.89.68-1.56,1.48-2.04,2.4-.47.92-.71,1.9-.71,2.96,0,1.41.43,2.58,1.3,3.51.87.94,2.01,1.75,3.42,2.43,1.42.68,3.03,1.3,4.84,1.84,1.81.55,3.66,1.13,5.55,1.76,1.89.63,3.74,1.35,5.55,2.17,1.81.82,3.42,1.82,4.84,3.02,1.42,1.19,2.56,2.63,3.42,4.33s1.3,3.76,1.3,6.18c0,2.81-.51,5.41-1.53,7.79s-2.52,4.45-4.48,6.21c-1.97,1.76-4.42,3.12-7.35,4.1-2.93.97-6.29,1.46-10.06,1.46-2.09,0-4.1-.19-6.05-.56-1.95-.37-3.8-.88-5.55-1.52-1.75-.64-3.38-1.41-4.9-2.31-1.52-.9-2.86-1.88-4.04-2.93l2.95-4.8c.35-.59.8-1.04,1.33-1.37.53-.33,1.19-.5,1.98-.5s1.64.27,2.45.79c.81.53,1.75,1.1,2.83,1.73,1.08.63,2.39,1.2,3.92,1.73,1.53.53,3.44.79,5.72.79,1.89,0,3.52-.22,4.9-.67,1.38-.45,2.52-1.06,3.42-1.85.9-.78,1.57-1.67,2.01-2.66.43-1,.65-2.06.65-3.19,0-1.52-.43-2.77-1.3-3.75-.87-.97-2.02-1.82-3.45-2.52-1.44-.7-3.07-1.33-4.9-1.87-1.83-.55-3.69-1.13-5.58-1.76s-3.75-1.35-5.58-2.17c-1.83-.82-3.46-1.86-4.9-3.13-1.44-1.27-2.59-2.81-3.45-4.63-.87-1.82-1.3-4.03-1.3-6.65,0-2.38.48-4.65,1.45-6.79.96-2.15,2.38-4.04,4.25-5.68,1.87-1.64,4.17-2.94,6.9-3.9s5.89-1.44,9.47-1.44c4.05,0,7.73.64,11.04,1.93,3.3,1.29,6.08,3.04,8.32,5.27l-2.83,4.57Z"/>
                <path class="napis" d="M314.88,562.62c-5,0-8.84-1.4-11.54-4.19-2.7-2.79-4.04-6.72-4.04-11.8v-34.79h-6.61c-.71,0-1.32-.22-1.83-.67-.51-.45-.77-1.12-.77-2.02v-5.09l9.74-1.41,2.77-17.28c.2-.66.53-1.2,1-1.61.47-.41,1.1-.62,1.89-.62h6.49v19.62h16.7v9.08h-16.7v33.91c0,2.15.53,3.79,1.59,4.92s2.48,1.7,4.25,1.7c.98,0,1.83-.13,2.54-.38.71-.25,1.32-.53,1.83-.82.51-.29.95-.57,1.33-.82s.74-.38,1.09-.38c.71,0,1.28.39,1.71,1.17l3.78,6.15c-1.97,1.72-4.29,3.04-6.96,3.95-2.68.92-5.43,1.38-8.26,1.38Z"/>
                <path class="napis" d="M364.33,501c4.45,0,8.47.72,12.07,2.17s6.67,3.49,9.21,6.15c2.54,2.66,4.49,5.88,5.87,9.66,1.38,3.79,2.07,8.04,2.07,12.77s-.69,8.98-2.07,12.77c-1.38,3.79-3.33,7.02-5.87,9.69-2.54,2.67-5.61,4.74-9.21,6.18-3.6,1.45-7.62,2.17-12.07,2.17s-8.53-.72-12.13-2.17c-3.6-1.44-6.68-3.5-9.24-6.18-2.56-2.67-4.52-5.9-5.9-9.69-1.38-3.79-2.07-8.04-2.07-12.77s.69-8.98,2.07-12.77c1.38-3.79,3.34-7.01,5.9-9.66,2.56-2.65,5.64-4.7,9.24-6.15s7.64-2.17,12.13-2.17ZM364.33,552.72c5.43,0,9.47-1.81,12.13-5.42,2.65-3.61,3.98-8.77,3.98-15.49s-1.33-11.9-3.98-15.55c-2.66-3.65-6.7-5.48-12.13-5.48s-9.6,1.83-12.27,5.48c-2.68,3.65-4.01,8.83-4.01,15.55s1.34,11.88,4.01,15.49c2.67,3.61,6.77,5.42,12.27,5.42Z"/>
                <path class="napis" d="M448.24,513.66c-.39.51-.77.9-1.12,1.17-.35.27-.87.41-1.53.41s-1.37-.23-2.09-.7c-.73-.47-1.59-.99-2.6-1.55-1-.56-2.21-1.08-3.63-1.55s-3.19-.7-5.31-.7c-2.75,0-5.16.49-7.23,1.46s-3.8,2.37-5.19,4.19-2.44,4.02-3.13,6.62c-.69,2.6-1.03,5.52-1.03,8.76s.37,6.35,1.12,8.96c.75,2.62,1.82,4.82,3.22,6.62,1.4,1.8,3.09,3.16,5.07,4.1s4.22,1.41,6.7,1.41,4.43-.29,5.96-.88c1.53-.59,2.81-1.23,3.84-1.93,1.02-.7,1.9-1.35,2.63-1.93.73-.59,1.51-.88,2.33-.88,1.02,0,1.81.39,2.36,1.17l3.6,4.63c-1.46,1.76-3.07,3.24-4.84,4.45-1.77,1.21-3.64,2.2-5.61,2.96-1.97.76-4.01,1.31-6.14,1.64-2.12.33-4.27.5-6.43.5-3.74,0-7.23-.69-10.47-2.08-3.25-1.38-6.08-3.4-8.5-6.03s-4.33-5.86-5.72-9.66c-1.4-3.81-2.09-8.15-2.09-13.03,0-4.41.63-8.5,1.89-12.27,1.26-3.77,3.1-7.02,5.52-9.75,2.42-2.73,5.42-4.87,9-6.41s7.71-2.31,12.39-2.31c4.37,0,8.21.7,11.54,2.11,3.32,1.41,6.29,3.4,8.88,5.97l-3.36,4.57Z"/>
                <path class="napis" d="M475.03,509.03c2.48-2.42,5.19-4.36,8.14-5.83s6.39-2.2,10.33-2.2c3.3,0,6.21.55,8.7,1.64,2.5,1.09,4.6,2.64,6.31,4.63,1.71,1.99,3,4.38,3.87,7.17.86,2.79,1.3,5.87,1.3,9.23v38.01h-12.63v-38.01c0-4.02-.93-7.15-2.8-9.37-1.87-2.23-4.71-3.34-8.53-3.34-2.83,0-5.46.64-7.88,1.93s-4.69,3.05-6.82,5.27v43.52h-12.69v-86.68h12.69v34.03Z"/>
                <path class="napis" d="M554.58,501c4.45,0,8.47.72,12.07,2.17s6.67,3.49,9.21,6.15c2.54,2.66,4.49,5.88,5.87,9.66,1.38,3.79,2.07,8.04,2.07,12.77s-.69,8.98-2.07,12.77c-1.38,3.79-3.33,7.02-5.87,9.69-2.54,2.67-5.61,4.74-9.21,6.18-3.6,1.45-7.62,2.17-12.07,2.17s-8.53-.72-12.13-2.17c-3.6-1.44-6.68-3.5-9.24-6.18-2.56-2.67-4.52-5.9-5.9-9.69-1.38-3.79-2.07-8.04-2.07-12.77s.69-8.98,2.07-12.77c1.38-3.79,3.34-7.01,5.9-9.66,2.56-2.65,5.64-4.7,9.24-6.15s7.64-2.17,12.13-2.17ZM554.58,552.72c5.43,0,9.47-1.81,12.13-5.42,2.65-3.61,3.98-8.77,3.98-15.49s-1.33-11.9-3.98-15.55c-2.66-3.65-6.7-5.48-12.13-5.48s-9.6,1.83-12.27,5.48c-2.68,3.65-4.01,8.83-4.01,15.55s1.34,11.88,4.01,15.49c2.67,3.61,6.77,5.42,12.27,5.42Z"/>
                <path class="napis" d="M679.57,501.94l-19.3,59.74h-10.09c-1.18,0-2.01-.76-2.48-2.28l-11.98-37.19c-.32-1.05-.6-2.11-.86-3.16-.26-1.05-.48-2.09-.68-3.1-.43,2.11-.96,4.22-1.59,6.32l-12.16,37.13c-.43,1.52-1.36,2.28-2.77,2.28h-9.62l-19.3-59.74h10.03c.98,0,1.8.24,2.45.73.65.49,1.07,1.06,1.27,1.73l10.03,34.79c.39,1.6.74,3.15,1.03,4.66.29,1.5.56,3,.8,4.48.39-1.48.81-2.98,1.24-4.48.43-1.5.89-3.05,1.36-4.66l11.27-34.97c.2-.7.6-1.28,1.21-1.73.61-.45,1.35-.67,2.21-.67h5.55c.9,0,1.67.22,2.3.67.63.45,1.04,1.03,1.24,1.73l10.98,34.97c.47,1.6.92,3.16,1.33,4.68s.8,3.05,1.15,4.57c.27-1.48.57-2.99.89-4.51.31-1.52.69-3.1,1.12-4.74l10.21-34.79c.24-.7.67-1.29,1.3-1.76.63-.47,1.4-.7,2.3-.7h9.56Z"/>
                <path class="napis" d="M686.53,510.26c6.8-6.29,14.91-9.43,24.31-9.43,3.46,0,6.54.56,9.23,1.67,2.69,1.11,4.96,2.69,6.78,4.71,1.83,2.03,3.23,4.44,4.19,7.23.96,2.79,1.44,5.89,1.44,9.28v37.95h-5.66c-1.22,0-2.14-.18-2.77-.56-.63-.37-1.16-1.12-1.59-2.26l-1.24-4.86c-1.54,1.37-3.05,2.59-4.54,3.66-1.5,1.07-3.04,1.98-4.63,2.72-1.59.74-3.3,1.3-5.13,1.67-1.83.37-3.85.56-6.05.56-2.44,0-4.71-.33-6.82-1s-3.92-1.67-5.46-3.02c-1.53-1.35-2.74-3.02-3.63-5.01-.88-1.99-1.33-4.34-1.33-7.03,0-2.3.62-4.55,1.86-6.74,1.24-2.18,3.28-4.15,6.14-5.89,2.85-1.74,6.61-3.17,11.27-4.31s10.42-1.78,17.26-1.93v-3.98c0-4.29-.93-7.5-2.77-9.61s-4.56-3.16-8.14-3.16c-2.44,0-4.48.3-6.14.91-1.65.6-3.09,1.26-4.31,1.96-1.22.7-2.3,1.36-3.25,1.96-.94.61-1.95.91-3.01.91-.87,0-1.6-.22-2.21-.67-.61-.45-1.11-1-1.51-1.67l-2.3-4.1ZM720.17,535.56c-4.52.16-8.34.52-11.45,1.08-3.11.57-5.63,1.29-7.55,2.17-1.93.88-3.31,1.92-4.16,3.13-.85,1.21-1.27,2.54-1.27,3.98s.23,2.61.68,3.6c.45,1,1.08,1.82,1.89,2.46.81.64,1.75,1.11,2.83,1.41,1.08.29,2.27.44,3.57.44,3.3,0,6.15-.62,8.53-1.85,2.38-1.23,4.69-3.02,6.93-5.36v-11.07Z"/>
            </g>
        </g>
    </g>
</svg>